<mxfile host="app.diagrams.net" agent="Mozilla/5.0 (Windows NT 10.0; Win64; x64) AppleWebKit/537.36 (KHTML, like Gecko) Chrome/129.0.0.0 Safari/537.36 Edg/129.0.0.0" version="24.7.17">
  <diagram name="第 1 页" id="sRbYJeu1rpa0pzKRpUh5">
    <mxGraphModel dx="1213" dy="768" grid="1" gridSize="10" guides="1" tooltips="1" connect="1" arrows="1" fold="1" page="1" pageScale="1" pageWidth="827" pageHeight="1169" math="0" shadow="0">
      <root>
        <mxCell id="0" />
        <mxCell id="1" parent="0" />
        <mxCell id="yt6ttKddRfJb8Kh9T7G0-4" value="" style="edgeStyle=orthogonalEdgeStyle;rounded=0;orthogonalLoop=1;jettySize=auto;html=1;fontStyle=1" edge="1" parent="1" source="yt6ttKddRfJb8Kh9T7G0-1" target="yt6ttKddRfJb8Kh9T7G0-2">
          <mxGeometry relative="1" as="geometry" />
        </mxCell>
        <mxCell id="yt6ttKddRfJb8Kh9T7G0-1" value="实时流量" style="rounded=1;whiteSpace=wrap;html=1;verticalAlign=top;labelPosition=center;verticalLabelPosition=bottom;align=center;fillColor=#f5f5f5;fontColor=#333333;strokeColor=#666666;fontStyle=1" vertex="1" parent="1">
          <mxGeometry x="160" y="200" width="120" height="60" as="geometry" />
        </mxCell>
        <mxCell id="yt6ttKddRfJb8Kh9T7G0-5" value="" style="edgeStyle=orthogonalEdgeStyle;rounded=0;orthogonalLoop=1;jettySize=auto;html=1;fontStyle=1" edge="1" parent="1" source="yt6ttKddRfJb8Kh9T7G0-2" target="yt6ttKddRfJb8Kh9T7G0-3">
          <mxGeometry relative="1" as="geometry" />
        </mxCell>
        <mxCell id="yt6ttKddRfJb8Kh9T7G0-2" value="特征提取" style="rounded=1;whiteSpace=wrap;html=1;verticalAlign=top;labelPosition=center;verticalLabelPosition=bottom;align=center;fillColor=#f5f5f5;fontColor=#333333;strokeColor=#666666;fontStyle=1" vertex="1" parent="1">
          <mxGeometry x="320" y="200" width="120" height="60" as="geometry" />
        </mxCell>
        <mxCell id="yt6ttKddRfJb8Kh9T7G0-3" value="分类" style="rounded=1;whiteSpace=wrap;html=1;verticalAlign=top;labelPosition=center;verticalLabelPosition=bottom;align=center;fillColor=#f5f5f5;fontColor=#333333;strokeColor=#666666;fontStyle=1" vertex="1" parent="1">
          <mxGeometry x="480" y="200" width="120" height="60" as="geometry" />
        </mxCell>
        <mxCell id="yt6ttKddRfJb8Kh9T7G0-6" value="" style="rounded=0;whiteSpace=wrap;html=1;fillColor=#dae8fc;strokeColor=#6c8ebf;fontStyle=1" vertex="1" parent="1">
          <mxGeometry x="170" y="210" width="10" height="40" as="geometry" />
        </mxCell>
        <mxCell id="yt6ttKddRfJb8Kh9T7G0-7" value="" style="rounded=0;whiteSpace=wrap;html=1;fillColor=#d5e8d4;strokeColor=#82b366;fontStyle=1" vertex="1" parent="1">
          <mxGeometry x="190" y="210" width="10" height="40" as="geometry" />
        </mxCell>
        <mxCell id="yt6ttKddRfJb8Kh9T7G0-8" value="" style="rounded=0;whiteSpace=wrap;html=1;fillColor=#dae8fc;strokeColor=#6c8ebf;fontStyle=1" vertex="1" parent="1">
          <mxGeometry x="210" y="210" width="10" height="40" as="geometry" />
        </mxCell>
        <mxCell id="yt6ttKddRfJb8Kh9T7G0-10" value="" style="rounded=0;whiteSpace=wrap;html=1;fillColor=#f8cecc;strokeColor=#b85450;fontStyle=1" vertex="1" parent="1">
          <mxGeometry x="260" y="210" width="10" height="40" as="geometry" />
        </mxCell>
        <mxCell id="yt6ttKddRfJb8Kh9T7G0-14" value="" style="endArrow=none;dashed=1;html=1;dashPattern=1 3;strokeWidth=2;rounded=0;entryX=0;entryY=0.5;entryDx=0;entryDy=0;exitX=1;exitY=0.5;exitDx=0;exitDy=0;fontStyle=1" edge="1" parent="1">
          <mxGeometry width="50" height="50" relative="1" as="geometry">
            <mxPoint x="223" y="230" as="sourcePoint" />
            <mxPoint x="263" y="230" as="targetPoint" />
          </mxGeometry>
        </mxCell>
        <mxCell id="yt6ttKddRfJb8Kh9T7G0-15" value="" style="rounded=0;whiteSpace=wrap;html=1;fillColor=#dae8fc;strokeColor=#6c8ebf;fontStyle=1" vertex="1" parent="1">
          <mxGeometry x="330" y="210" width="10" height="40" as="geometry" />
        </mxCell>
        <mxCell id="yt6ttKddRfJb8Kh9T7G0-16" value="" style="rounded=0;whiteSpace=wrap;html=1;fillColor=#dae8fc;strokeColor=#6c8ebf;fontStyle=1" vertex="1" parent="1">
          <mxGeometry x="340" y="210" width="10" height="40" as="geometry" />
        </mxCell>
        <mxCell id="yt6ttKddRfJb8Kh9T7G0-17" value="" style="rounded=0;whiteSpace=wrap;html=1;fillColor=#dae8fc;strokeColor=#6c8ebf;fontStyle=1" vertex="1" parent="1">
          <mxGeometry x="350" y="210" width="10" height="40" as="geometry" />
        </mxCell>
        <mxCell id="yt6ttKddRfJb8Kh9T7G0-18" value="" style="rounded=0;whiteSpace=wrap;html=1;fillColor=#f8cecc;strokeColor=#b85450;fontStyle=1" vertex="1" parent="1">
          <mxGeometry x="399" y="210" width="10" height="40" as="geometry" />
        </mxCell>
        <mxCell id="yt6ttKddRfJb8Kh9T7G0-19" value="" style="rounded=0;whiteSpace=wrap;html=1;fillColor=#f8cecc;strokeColor=#b85450;fontStyle=1" vertex="1" parent="1">
          <mxGeometry x="409" y="210" width="10" height="40" as="geometry" />
        </mxCell>
        <mxCell id="yt6ttKddRfJb8Kh9T7G0-20" value="" style="rounded=0;whiteSpace=wrap;html=1;fillColor=#f8cecc;strokeColor=#b85450;fontStyle=1" vertex="1" parent="1">
          <mxGeometry x="419" y="210" width="10" height="40" as="geometry" />
        </mxCell>
        <mxCell id="yt6ttKddRfJb8Kh9T7G0-21" value="" style="endArrow=none;dashed=1;html=1;dashPattern=1 3;strokeWidth=2;rounded=0;entryX=0;entryY=0.5;entryDx=0;entryDy=0;exitX=1;exitY=0.5;exitDx=0;exitDy=0;fontStyle=1" edge="1" parent="1">
          <mxGeometry width="50" height="50" relative="1" as="geometry">
            <mxPoint x="362" y="229.5" as="sourcePoint" />
            <mxPoint x="402" y="229.5" as="targetPoint" />
          </mxGeometry>
        </mxCell>
        <mxCell id="yt6ttKddRfJb8Kh9T7G0-22" value="异常" style="rounded=0;whiteSpace=wrap;html=1;fillColor=#dae8fc;strokeColor=#6c8ebf;fontStyle=1" vertex="1" parent="1">
          <mxGeometry x="490" y="210" width="40" height="40" as="geometry" />
        </mxCell>
        <mxCell id="yt6ttKddRfJb8Kh9T7G0-24" value="正常" style="rounded=0;whiteSpace=wrap;html=1;fillColor=#f8cecc;strokeColor=#b85450;fontStyle=1" vertex="1" parent="1">
          <mxGeometry x="550" y="210" width="40" height="40" as="geometry" />
        </mxCell>
      </root>
    </mxGraphModel>
  </diagram>
</mxfile>
